<?xml version="1.0" encoding="UTF-8"?>
<!DOCTYPE svg PUBLIC "-//W3C//DTD SVG 1.1//EN" "http://www.w3.org/Graphics/SVG/1.1/DTD/svg11.dtd">
<!-- Creator: CorelDRAW X7 -->
<svg xmlns="http://www.w3.org/2000/svg" xml:space="preserve" width="8.4666mm" height="8.4666mm" version="1.1" style="shape-rendering:geometricPrecision; text-rendering:geometricPrecision; image-rendering:optimizeQuality; fill-rule:evenodd; clip-rule:evenodd"
viewBox="0 0 847 847"
 xmlns:xlink="http://www.w3.org/1999/xlink">
 <defs>
  <style type="text/css">
   <![CDATA[
    .fil0 {fill:none}
    .fil1 {fill:#038F3D}
    .fil2 {fill:#047A3D}
   ]]>
  </style>
 </defs>
 <g id="Layer_x0020_1">
  <metadata id="CorelCorpID_0Corel-Layer"/>
  <rect class="fil0" width="847" height="847"/>
  <g id="_2818321490912">
   <g>
    <path class="fil1" d="M253 719c0,16 1,36 5,51 3,9 8,18 16,24 7,6 15,10 23,13 12,4 26,5 38,6l8 0 0 23 -254 0 0 -23 8 0c12,-1 26,-2 38,-6 8,-3 16,-7 23,-13 8,-6 13,-14 16,-24 4,-15 4,-35 4,-51l0 -256c0,-15 0,-36 -4,-51 -3,-9 -8,-17 -16,-24 -7,-6 -15,-10 -24,-13 -11,-3 -25,-5 -37,-5l-8 0 0 -24 254 0 0 24 -8 0c-12,0 -25,2 -37,5 -9,3 -17,7 -24,13 -8,7 -13,15 -16,25 -4,15 -5,35 -5,50l0 187 222 -221c12,-12 -12,-35 -19,-41 -6,-6 -14,-10 -23,-13 -12,-3 -26,-5 -38,-5l-7 0 0 -24 253 0 0 24 -8 0c-12,0 -25,2 -37,5 -9,3 -17,7 -24,13 -8,7 -151,145 -154,154 36,67 110,205 166,252 7,6 15,10 24,13 11,4 25,5 37,6l8 0 0 23 -254 0 0 -23 8 0c12,-1 26,-2 38,-6 72,-22 -90,-207 -92,-207l-100 83 0 36z"/>
    <path class="fil1" d="M452 90c188,8 336,91 340,194l28 0c7,0 12,6 12,13l0 18c0,6 -5,12 -12,12l-49 0 0 507 -105 0 0 -507 -639 0c-7,0 -13,-6 -13,-12l0 -18c0,-7 6,-13 13,-13l28 0c3,-103 152,-186 340,-194l10 -30 18 -49 18 49 11 30z"/>
   </g>
   <g>
    <path class="fil2" d="M253 719c0,16 1,36 5,51 3,9 8,18 16,24 7,6 15,10 23,13 12,4 26,5 38,6l8 0 0 23 -254 0 0 -23 8 0c12,-1 26,-2 38,-6 8,-3 16,-7 23,-13 8,-6 13,-14 16,-24 4,-15 4,-35 4,-51l0 -171 75 0 0 102 102 -102 66 0c37,69 108,200 163,246 7,6 15,10 24,13 11,4 25,5 37,6l8 0 0 23 -254 0 0 -23 8 0c12,-1 26,-2 38,-6 72,-22 -90,-207 -92,-207l-100 83 0 36z"/>
    <polygon class="fil2" points="771,548 771,834 666,834 666,548 "/>
   </g>
  </g>
 </g>
</svg>
